<svg xmlns="http://www.w3.org/2000/svg" viewBox="0 0 296.2 70.6"><defs><style>.cls-1{fill:#fff;}</style></defs><g id="Layer_2" data-name="Layer 2"><g id="Layer_1-2" data-name="Layer 1"><path class="cls-1" d="M20.1,1,0,69.6H13.9l3.67-14.2H40.08L43.9,69.6H58.4L38.2,1Zm.18,43.9L28.4,13.5h.4l8.45,31.4Z"/><path class="cls-1" d="M111.05,38.65a15.45,15.45,0,0,0-4.45-3A17.45,17.45,0,0,0,102,34.3v-.6a19.49,19.49,0,0,0,5.8-2.65,13.7,13.7,0,0,0,4.55-5.15,17.69,17.69,0,0,0,1.75-8.3A16.83,16.83,0,0,0,111.9,9a15.28,15.28,0,0,0-6.2-5.85A20.43,20.43,0,0,0,96.1,1H65.3V69.6H96.7a20,20,0,0,0,9.9-2.4,17.52,17.52,0,0,0,6.7-6.5,18.26,18.26,0,0,0,2.4-9.4,19.81,19.81,0,0,0-1.3-7.6A14.66,14.66,0,0,0,111.05,38.65ZM78.6,11.5H92.4a7.48,7.48,0,0,1,5.75,2.2c1.36,1.47,2,3.63,2,6.5a10.37,10.37,0,0,1-1,4.7,7.67,7.67,0,0,1-3,3.25A8.58,8.58,0,0,1,91.7,29.3H78.6Zm22,42.15a8.16,8.16,0,0,1-3,3.4,8.7,8.7,0,0,1-4.7,1.25H78.6V39.9H92.8A9.57,9.57,0,0,1,97.3,41a7.64,7.64,0,0,1,3.15,3.1,10.06,10.06,0,0,1,1.15,5A10.43,10.43,0,0,1,100.55,53.65Z"/><path class="cls-1" d="M169.35,7.15a22.08,22.08,0,0,0-8.4-5.4A31.15,31.15,0,0,0,150.3,0h-2.2a30.36,30.36,0,0,0-10.5,1.75,22.81,22.81,0,0,0-8.4,5.35,24.25,24.25,0,0,0-5.6,9.25,39.91,39.91,0,0,0-2,13.35V40.9a40.88,40.88,0,0,0,2,13.4,23.82,23.82,0,0,0,5.55,9.2,22.68,22.68,0,0,0,8.45,5.35A31.07,31.07,0,0,0,148.2,70.6h2.2A30,30,0,0,0,161,68.8a22.87,22.87,0,0,0,8.35-5.4,24.31,24.31,0,0,0,5.5-9.2,40.5,40.5,0,0,0,2-13.3V29.7a40.54,40.54,0,0,0-2-13.3A24.76,24.76,0,0,0,169.35,7.15ZM162.1,43.6a24.7,24.7,0,0,1-1,7.55A12.84,12.84,0,0,1,158.4,56a10.35,10.35,0,0,1-4.1,2.65,15.08,15.08,0,0,1-5.1.85,14.63,14.63,0,0,1-5-.85A10.31,10.31,0,0,1,140.1,56a12.58,12.58,0,0,1-2.7-4.85,24.4,24.4,0,0,1-1-7.55V26.9a24.4,24.4,0,0,1,1-7.55,12.58,12.58,0,0,1,2.7-4.85,9.78,9.78,0,0,1,4.05-2.6,15.63,15.63,0,0,1,5-.8,16.12,16.12,0,0,1,5.1.8,9.83,9.83,0,0,1,4.1,2.6,12.84,12.84,0,0,1,2.7,4.85,24.7,24.7,0,0,1,1,7.55Z"/><path class="cls-1" d="M220.2,47.7q0,5.59-2.85,8.7t-8.15,3.1q-5.2,0-8.1-3.1c-1.94-2.07-2.9-5-2.9-8.7V1H184.3V47.7q0,10.8,6.2,16.85t17.4,6h2.7q11.1,0,17.3-6t6.2-16.85V1H220.2Z"/><polygon class="cls-1" points="242.2 1 242.2 12.6 262 12.6 262 69.6 276.4 69.6 276.4 12.6 296.2 12.6 296.2 1 242.2 1"/></g></g></svg>