<svg xmlns="http://www.w3.org/2000/svg" viewBox="0 0 414.59 70.6"><defs><style>.cls-1{fill:#fff;}</style></defs><g id="Layer_2" data-name="Layer 2"><g id="Layer_1-2" data-name="Layer 1"><path class="cls-1" d="M15.8,19.35a13.21,13.21,0,0,1,2.65-4.85,9.51,9.51,0,0,1,3.95-2.6,14.9,14.9,0,0,1,4.9-.8c3.33,0,5.92.6,7.75,1.8a9.51,9.51,0,0,1,3.85,5.5A34.21,34.21,0,0,1,40,27.9H53.7q0-9.41-3.1-15.55A21.15,21.15,0,0,0,41.9,3.1,26.78,26.78,0,0,0,28.7,0H26.5A30.36,30.36,0,0,0,16,1.75,22.81,22.81,0,0,0,7.6,7.1,24.25,24.25,0,0,0,2,16.35,40.17,40.17,0,0,0,0,29.7V40.9A40.88,40.88,0,0,0,2,54.3,23.89,23.89,0,0,0,7.5,63.5,22.76,22.76,0,0,0,16,68.85,31.07,31.07,0,0,0,26.6,70.6h2.2A25.25,25.25,0,0,0,42,67.3a22.43,22.43,0,0,0,8.65-9.5,33.19,33.19,0,0,0,3.1-15H40.5q0,8.7-2.85,12.7t-10.35,4a14,14,0,0,1-4.9-.85A10,10,0,0,1,18.45,56a13.21,13.21,0,0,1-2.65-4.85,24.4,24.4,0,0,1-1-7.55V26.9A24.4,24.4,0,0,1,15.8,19.35Z"/><path class="cls-1" d="M107.75,7.15a22.08,22.08,0,0,0-8.4-5.4A31.07,31.07,0,0,0,88.7,0H86.5A30.36,30.36,0,0,0,76,1.75,22.81,22.81,0,0,0,67.6,7.1,24.25,24.25,0,0,0,62,16.35,40.17,40.17,0,0,0,60,29.7V40.9a40.88,40.88,0,0,0,2,13.4,23.89,23.89,0,0,0,5.55,9.2A22.68,22.68,0,0,0,76,68.85,31.07,31.07,0,0,0,86.6,70.6h2.2a30,30,0,0,0,10.6-1.8,22.87,22.87,0,0,0,8.35-5.4,24.18,24.18,0,0,0,5.5-9.2,40.54,40.54,0,0,0,2-13.3V29.7a40.54,40.54,0,0,0-2-13.3A24.63,24.63,0,0,0,107.75,7.15ZM100.5,43.6a24.4,24.4,0,0,1-1,7.55A12.84,12.84,0,0,1,96.8,56a10.28,10.28,0,0,1-4.1,2.65,15.08,15.08,0,0,1-5.1.85,14.67,14.67,0,0,1-5-.85,10.31,10.31,0,0,1-4-2.65,12.71,12.71,0,0,1-2.7-4.85,24.4,24.4,0,0,1-1-7.55V26.9a24.4,24.4,0,0,1,1-7.55,12.71,12.71,0,0,1,2.7-4.85,9.78,9.78,0,0,1,4-2.6,15.67,15.67,0,0,1,5-.8,16.12,16.12,0,0,1,5.1.8,9.76,9.76,0,0,1,4.1,2.6,12.84,12.84,0,0,1,2.7,4.85,24.4,24.4,0,0,1,1,7.55Z"/><polygon class="cls-1" points="158.3 43.7 157.9 43.7 154.7 36.3 137.5 1 123.7 1 123.7 69.6 136.9 69.6 136.9 27.4 137.4 27.3 140.1 33.9 157.7 69.6 171.5 69.6 171.5 1 158.3 1 158.3 43.7"/><polygon class="cls-1" points="180.6 12.6 200.4 12.6 200.4 69.6 214.8 69.6 214.8 12.6 234.6 12.6 234.6 1 180.6 1 180.6 12.6"/><path class="cls-1" d="M258.5,1,238.4,69.6h13.9L256,55.4h22.5l3.83,14.2h14.5L276.6,1Zm.18,43.9,8.12-31.4h.4l8.45,31.4Z"/><path class="cls-1" d="M315.8,19.35a13.07,13.07,0,0,1,2.65-4.85,9.45,9.45,0,0,1,3.95-2.6,14.85,14.85,0,0,1,4.9-.8q5,0,7.75,1.8a9.55,9.55,0,0,1,3.85,5.5,34.21,34.21,0,0,1,1.1,9.5h13.7q0-9.41-3.1-15.55a21.15,21.15,0,0,0-8.7-9.25A26.83,26.83,0,0,0,328.7,0h-2.2A30.36,30.36,0,0,0,316,1.75a22.81,22.81,0,0,0-8.4,5.35,24.25,24.25,0,0,0-5.6,9.25,39.91,39.91,0,0,0-2,13.35V40.9A40.88,40.88,0,0,0,302,54.3a23.89,23.89,0,0,0,5.55,9.2A22.68,22.68,0,0,0,316,68.85,31.07,31.07,0,0,0,326.6,70.6h2.2A25.27,25.27,0,0,0,342,67.3a22.43,22.43,0,0,0,8.65-9.5,33.32,33.32,0,0,0,3.1-15H340.5q0,8.7-2.85,12.7t-10.35,4a13.91,13.91,0,0,1-4.9-.85A10,10,0,0,1,318.45,56a13.07,13.07,0,0,1-2.65-4.85,24.4,24.4,0,0,1-1-7.55V26.9A24.4,24.4,0,0,1,315.8,19.35Z"/><polygon class="cls-1" points="360.6 1 360.6 12.6 380.39 12.6 380.39 69.6 394.8 69.6 394.8 12.6 414.6 12.6 414.6 1 360.6 1"/></g></g></svg>