<svg xmlns="http://www.w3.org/2000/svg" viewBox="0 0 347.79 70.6"><defs><style>.cls-1{fill:#fff;}</style></defs><g id="Layer_2" data-name="Layer 2"><g id="Layer_1-2" data-name="Layer 1"><path class="cls-1" d="M44.9,7.45A24.38,24.38,0,0,0,36.2,2.6,35.42,35.42,0,0,0,25.4,1H0V69.6H25.4A34.24,34.24,0,0,0,36.2,68a24.79,24.79,0,0,0,8.7-4.9,22.31,22.31,0,0,0,5.8-8.2A29.67,29.67,0,0,0,52.8,43.2V27.4a30.06,30.06,0,0,0-2.1-11.7A22.25,22.25,0,0,0,44.9,7.45ZM38,44.1c0,3.67-.58,6.53-1.75,8.6a9.57,9.57,0,0,1-4.85,4.35,19.25,19.25,0,0,1-7.2,1.25H14.6V12.1h9.6a17.92,17.92,0,0,1,7.2,1.35,10.09,10.09,0,0,1,4.85,4.45A17.33,17.33,0,0,1,38,26.4Z"/><polygon class="cls-1" points="75.9 58 75.9 40 104.2 40 104.2 29 75.9 29 75.9 12.2 106.5 12.2 108.1 1 61.6 1 61.6 69.6 108.5 69.6 106.9 58 75.9 58"/><path class="cls-1" d="M163.55,33.65a31.71,31.71,0,0,0-7.55-3.4c-2.74-.83-5.47-1.57-8.2-2.2s-5.25-1.3-7.55-2a14.68,14.68,0,0,1-5.5-2.85,6.06,6.06,0,0,1-2.05-4.8,6.19,6.19,0,0,1,1.45-4.25,8.9,8.9,0,0,1,4-2.5,19.53,19.53,0,0,1,6.1-.85,17.29,17.29,0,0,1,6.5,1.1A9.12,9.12,0,0,1,155,15.05a8.07,8.07,0,0,1,1.45,4.75V21h13.3V19.7q0-6.9-3.45-11.25a20,20,0,0,0-9.2-6.4A37.72,37.72,0,0,0,144.3,0a38.17,38.17,0,0,0-13.05,2.15,21.57,21.57,0,0,0-9.55,6.5,16.75,16.75,0,0,0-3.6,11A18.35,18.35,0,0,0,120.2,29a16.88,16.88,0,0,0,5.5,5.85,30.55,30.55,0,0,0,7.55,3.5c2.76.87,5.5,1.63,8.2,2.3s5.18,1.37,7.45,2.1a15.43,15.43,0,0,1,5.5,2.95,6.27,6.27,0,0,1,2.1,5,7.9,7.9,0,0,1-1.45,4.9,8.38,8.38,0,0,1-4.3,2.8,24.14,24.14,0,0,1-7.15.9,21.09,21.09,0,0,1-7.45-1.15A8.82,8.82,0,0,1,130,49.2v-.9a4.41,4.41,0,0,1,.1-.9H116.6a5.06,5.06,0,0,0-.1,1.05V49.6a19.6,19.6,0,0,0,2.2,9.6,17.92,17.92,0,0,0,6,6.5,27.51,27.51,0,0,0,8.7,3.7,43.12,43.12,0,0,0,10.3,1.2A42,42,0,0,0,158,68.35a20.36,20.36,0,0,0,9.8-7.1q3.54-4.84,3.55-12.85a17.27,17.27,0,0,0-2.15-9A17,17,0,0,0,163.55,33.65Z"/><polygon class="cls-1" points="182.6 11.6 196.6 11.6 196.6 58.9 182.6 58.9 182.6 69.6 225.2 69.6 225.2 58.9 211.2 58.9 211.2 11.6 225.2 11.6 225.2 1 182.6 1 182.6 11.6"/><path class="cls-1" d="M290.2,56.2V32.6H262.6v9.9h14.2v3.2c0,3.6-.59,6.4-1.75,8.4a9.6,9.6,0,0,1-4.65,4.2,16.88,16.88,0,0,1-6.5,1.2,14.63,14.63,0,0,1-5-.85A10.31,10.31,0,0,1,254.8,56a12.58,12.58,0,0,1-2.7-4.85,24.4,24.4,0,0,1-1-7.55V26.9c0-4.07.55-7.23,1.65-9.5a10.08,10.08,0,0,1,4.55-4.85,14.28,14.28,0,0,1,6.5-1.45,13.58,13.58,0,0,1,7.3,1.75,10.55,10.55,0,0,1,4.15,4.9,18.81,18.81,0,0,1,1.35,7.45h13.6a28.68,28.68,0,0,0-1.95-10.95,21.61,21.61,0,0,0-5.4-7.9,23.23,23.23,0,0,0-8-4.75A29.24,29.24,0,0,0,265.1,0h-2.3a31.36,31.36,0,0,0-10.75,1.75,22.17,22.17,0,0,0-8.4,5.35,23.53,23.53,0,0,0-5.45,9.25,41.93,41.93,0,0,0-1.9,13.35V40.9a40.88,40.88,0,0,0,1.95,13.4,24.41,24.41,0,0,0,5.45,9.2,22,22,0,0,0,8.2,5.35,28.9,28.9,0,0,0,10.2,1.75h.9a22.5,22.5,0,0,0,10.2-2.4,17,17,0,0,0,7.3-6.7l2.3,8.1h8.1q-.3-2.89-.5-6C290.26,61.54,290.2,59.07,290.2,56.2Z"/><polygon class="cls-1" points="334.6 1 334.6 43.7 334.19 43.7 331 36.3 313.8 1 300 1 300 69.6 313.19 69.6 313.19 27.4 313.69 27.3 316.4 33.9 334 69.6 347.8 69.6 347.8 1 334.6 1"/></g></g></svg>