<svg xmlns="http://www.w3.org/2000/svg" viewBox="0 0 471.99 70.6"><defs><style>.cls-1{fill:#fff;}</style></defs><g id="Layer_2" data-name="Layer 2"><g id="Layer_1-2" data-name="Layer 1"><path class="cls-1" d="M47.05,33.65a31.71,31.71,0,0,0-7.55-3.4c-2.73-.83-5.47-1.57-8.2-2.2s-5.25-1.3-7.55-2a14.76,14.76,0,0,1-5.5-2.85,6.06,6.06,0,0,1-2.05-4.8,6.19,6.19,0,0,1,1.45-4.25,9,9,0,0,1,4.05-2.5,19.58,19.58,0,0,1,6.1-.85,17.29,17.29,0,0,1,6.5,1.1,9.12,9.12,0,0,1,4.15,3.15A8,8,0,0,1,39.9,19.8V21H53.2V19.7q0-6.9-3.45-11.25a20,20,0,0,0-9.2-6.4A37.64,37.64,0,0,0,27.8,0a38.25,38.25,0,0,0-13,2.15A21.57,21.57,0,0,0,5.2,8.65a16.75,16.75,0,0,0-3.6,11A18.35,18.35,0,0,0,3.7,29,16.88,16.88,0,0,0,9.2,34.8a30.72,30.72,0,0,0,7.55,3.5c2.77.87,5.5,1.63,8.2,2.3S30.13,42,32.4,42.7a15.34,15.34,0,0,1,5.5,2.95,6.27,6.27,0,0,1,2.1,5,7.84,7.84,0,0,1-1.45,4.9,8.38,8.38,0,0,1-4.3,2.8,24.09,24.09,0,0,1-7.15.9,21.13,21.13,0,0,1-7.45-1.15,9.37,9.37,0,0,1-4.6-3.4A9.4,9.4,0,0,1,13.5,49.2v-.9a4.41,4.41,0,0,1,.1-.9H.1A5.06,5.06,0,0,0,0,48.45V49.6a19.6,19.6,0,0,0,2.2,9.6,18.09,18.09,0,0,0,6,6.5,27.51,27.51,0,0,0,8.7,3.7,43.18,43.18,0,0,0,10.3,1.2,42,42,0,0,0,14.25-2.25,20.31,20.31,0,0,0,9.8-7.1Q54.8,56.41,54.8,48.4a17.27,17.27,0,0,0-2.15-9A16.88,16.88,0,0,0,47.05,33.65Z"/><path class="cls-1" d="M78.3,1,58.2,69.6H72.1l3.67-14.2H98.28l3.82,14.2h14.5L96.4,1Zm.18,43.9L86.6,13.5H87l8.45,31.4Z"/><polygon class="cls-1" points="158.1 43.7 157.7 43.7 154.5 36.3 137.3 1 123.5 1 123.5 69.6 136.7 69.6 136.7 27.4 137.2 27.3 139.9 33.9 157.5 69.6 171.3 69.6 171.3 1 158.1 1 158.1 43.7"/><path class="cls-1" d="M233.7,56.2V32.6H206.1v9.9h14.2v3.2c0,3.6-.59,6.4-1.75,8.4a9.6,9.6,0,0,1-4.65,4.2,16.88,16.88,0,0,1-6.5,1.2,14.63,14.63,0,0,1-5.05-.85,10.31,10.31,0,0,1-4-2.65,12.58,12.58,0,0,1-2.7-4.85,24.4,24.4,0,0,1-1-7.55V26.9c0-4.07.55-7.23,1.65-9.5a10.08,10.08,0,0,1,4.55-4.85,14.28,14.28,0,0,1,6.5-1.45,13.58,13.58,0,0,1,7.3,1.75,10.55,10.55,0,0,1,4.15,4.9,18.81,18.81,0,0,1,1.35,7.45h13.6a28.68,28.68,0,0,0-1.95-10.95,21.61,21.61,0,0,0-5.4-7.9A23.23,23.23,0,0,0,218.4,1.6,29,29,0,0,0,208.6,0h-2.3a31.36,31.36,0,0,0-10.75,1.75,22.17,22.17,0,0,0-8.4,5.35,23.53,23.53,0,0,0-5.45,9.25,41.93,41.93,0,0,0-1.9,13.35V40.9a40.88,40.88,0,0,0,1.95,13.4,24.41,24.41,0,0,0,5.45,9.2,22,22,0,0,0,8.2,5.35,28.9,28.9,0,0,0,10.2,1.75h.9a22.5,22.5,0,0,0,10.2-2.4,17,17,0,0,0,7.3-6.7l2.3,8.1h8.1q-.3-2.89-.5-6C233.76,61.54,233.7,59.07,233.7,56.2Z"/><path class="cls-1" d="M278.4,47.7q0,5.59-2.85,8.7t-8.15,3.1q-5.2,0-8.1-3.1c-1.94-2.07-2.9-5-2.9-8.7V1H242.5V47.7q0,10.8,6.2,16.85t17.4,6h2.7q11.1,0,17.3-6t6.2-16.85V1H278.4Z"/><polygon class="cls-1" points="306.1 11.6 320.1 11.6 320.1 58.9 306.1 58.9 306.1 69.6 348.69 69.6 348.69 58.9 334.69 58.9 334.69 11.6 348.69 11.6 348.69 1 306.1 1 306.1 11.6"/><polygon class="cls-1" points="398.1 43.7 397.69 43.7 394.49 36.3 377.29 1 363.49 1 363.49 69.6 376.69 69.6 376.69 27.4 377.19 27.3 379.89 33.9 397.49 69.6 411.29 69.6 411.29 1 398.1 1 398.1 43.7"/><polygon class="cls-1" points="470.39 58 439.39 58 439.39 40 467.69 40 467.69 29 439.39 29 439.39 12.2 469.99 12.2 471.59 1 425.09 1 425.09 69.6 471.99 69.6 470.39 58"/></g></g></svg>