<svg xmlns="http://www.w3.org/2000/svg" viewBox="0 0 414.99 70.6"><defs><style>.cls-1{fill:#fff;}</style></defs><g id="Layer_2" data-name="Layer 2"><g id="Layer_1-2" data-name="Layer 1"><path class="cls-1" d="M47.05,33.65a31.71,31.71,0,0,0-7.55-3.4c-2.73-.83-5.47-1.57-8.2-2.2s-5.25-1.3-7.55-2a14.76,14.76,0,0,1-5.5-2.85,6.06,6.06,0,0,1-2.05-4.8,6.19,6.19,0,0,1,1.45-4.25,9,9,0,0,1,4.05-2.5,19.58,19.58,0,0,1,6.1-.85,17.29,17.29,0,0,1,6.5,1.1,9.12,9.12,0,0,1,4.15,3.15A8,8,0,0,1,39.9,19.8V21H53.2V19.7q0-6.9-3.45-11.25a20,20,0,0,0-9.2-6.4A37.64,37.64,0,0,0,27.8,0a38.25,38.25,0,0,0-13,2.15A21.57,21.57,0,0,0,5.2,8.65a16.75,16.75,0,0,0-3.6,11A18.35,18.35,0,0,0,3.7,29,16.88,16.88,0,0,0,9.2,34.8a30.72,30.72,0,0,0,7.55,3.5c2.77.87,5.5,1.63,8.2,2.3S30.13,42,32.4,42.7a15.34,15.34,0,0,1,5.5,2.95,6.26,6.26,0,0,1,2.1,5,7.84,7.84,0,0,1-1.45,4.9,8.38,8.38,0,0,1-4.3,2.8,24.09,24.09,0,0,1-7.15.9,21.13,21.13,0,0,1-7.45-1.15A8.82,8.82,0,0,1,13.5,49.2v-.9a4.34,4.34,0,0,1,.1-.9H.1A5.06,5.06,0,0,0,0,48.45V49.6a19.62,19.62,0,0,0,2.2,9.6,18.17,18.17,0,0,0,6,6.5,27.51,27.51,0,0,0,8.7,3.7,43.18,43.18,0,0,0,10.3,1.2,42,42,0,0,0,14.25-2.25,20.31,20.31,0,0,0,9.8-7.1Q54.8,56.41,54.8,48.4a17.27,17.27,0,0,0-2.15-9A16.88,16.88,0,0,0,47.05,33.65Z"/><polygon class="cls-1" points="65.1 69.6 79.3 69.6 79.3 41 105.6 41 105.6 30.1 79.3 30.1 79.3 12.5 108.8 12.5 110.4 1 65.1 1 65.1 69.6"/><path class="cls-1" d="M158.4,47.7q0,5.59-2.85,8.7t-8.15,3.1q-5.21,0-8.1-3.1c-1.94-2.07-2.9-5-2.9-8.7V1H122.5V47.7q0,10.8,6.2,16.85t17.4,6h2.7q11.1,0,17.3-6t6.2-16.85V1H158.4Z"/><polygon class="cls-1" points="207.5 48.5 207.1 48.5 199.9 1 181.9 1 181.9 69.6 193.2 69.6 193.2 17.9 193.6 17.9 201.4 69.6 211.9 69.6 219.8 17.9 220.3 17.9 220.3 69.6 232.9 69.6 232.9 1 215 1 207.5 48.5"/><path class="cls-1" d="M258.3,1,238.2,69.6h13.9l3.67-14.2h22.5l3.83,14.2h14.5L276.4,1Zm.18,43.9,8.12-31.4h.4l8.45,31.4Z"/><polygon class="cls-1" points="300.39 12.6 320.19 12.6 320.19 69.6 334.6 69.6 334.6 12.6 354.39 12.6 354.39 1 300.39 1 300.39 12.6"/><path class="cls-1" d="M413,16.4a24.63,24.63,0,0,0-5.5-9.25,21.93,21.93,0,0,0-8.4-5.4A31.07,31.07,0,0,0,388.49,0h-2.2a30.36,30.36,0,0,0-10.5,1.75,22.81,22.81,0,0,0-8.4,5.35,24.37,24.37,0,0,0-5.6,9.25,40.17,40.17,0,0,0-2,13.35V40.9a40.88,40.88,0,0,0,1.95,13.4,23.89,23.89,0,0,0,5.55,9.2,22.76,22.76,0,0,0,8.45,5.35,31.15,31.15,0,0,0,10.65,1.75h2.2a30,30,0,0,0,10.6-1.8,22.79,22.79,0,0,0,8.35-5.4,24.18,24.18,0,0,0,5.5-9.2A40.54,40.54,0,0,0,415,40.9V29.7A40.54,40.54,0,0,0,413,16.4ZM400.29,43.6a24.4,24.4,0,0,1-1,7.55,12.58,12.58,0,0,1-2.7,4.85,10.28,10.28,0,0,1-4.1,2.65,15.08,15.08,0,0,1-5.1.85,14.67,14.67,0,0,1-5.05-.85,10.45,10.45,0,0,1-4-2.65,12.84,12.84,0,0,1-2.7-4.85,24.7,24.7,0,0,1-1-7.55V26.9a24.7,24.7,0,0,1,1-7.55,12.84,12.84,0,0,1,2.7-4.85,9.91,9.91,0,0,1,4-2.6,15.67,15.67,0,0,1,5.05-.8,16.12,16.12,0,0,1,5.1.8,9.76,9.76,0,0,1,4.1,2.6,12.58,12.58,0,0,1,2.7,4.85,24.4,24.4,0,0,1,1,7.55Z"/></g></g></svg>