<svg xmlns="http://www.w3.org/2000/svg" viewBox="0 0 355 70.6"><defs><style>.cls-1{fill:#fff;}</style></defs><g id="Layer_2" data-name="Layer 2"><g id="Layer_1-2" data-name="Layer 1"><path class="cls-1" d="M47.05,33.65a31.71,31.71,0,0,0-7.55-3.4c-2.73-.83-5.47-1.57-8.2-2.2s-5.25-1.3-7.55-2a14.76,14.76,0,0,1-5.5-2.85,6.06,6.06,0,0,1-2.05-4.8,6.19,6.19,0,0,1,1.45-4.25,9,9,0,0,1,4.05-2.5,19.58,19.58,0,0,1,6.1-.85,17.29,17.29,0,0,1,6.5,1.1,9.12,9.12,0,0,1,4.15,3.15A8,8,0,0,1,39.9,19.8V21H53.2V19.7q0-6.9-3.45-11.25a20,20,0,0,0-9.2-6.4A37.64,37.64,0,0,0,27.8,0a38.25,38.25,0,0,0-13,2.15A21.57,21.57,0,0,0,5.2,8.65a16.75,16.75,0,0,0-3.6,11A18.35,18.35,0,0,0,3.7,29,16.88,16.88,0,0,0,9.2,34.8a30.72,30.72,0,0,0,7.55,3.5c2.77.87,5.5,1.63,8.2,2.3S30.13,42,32.4,42.7a15.34,15.34,0,0,1,5.5,2.95,6.27,6.27,0,0,1,2.1,5,7.84,7.84,0,0,1-1.45,4.9,8.38,8.38,0,0,1-4.3,2.8,24.09,24.09,0,0,1-7.15.9,21.13,21.13,0,0,1-7.45-1.15,9.37,9.37,0,0,1-4.6-3.4A9.4,9.4,0,0,1,13.5,49.2v-.9a4.41,4.41,0,0,1,.1-.9H.1A5.06,5.06,0,0,0,0,48.45V49.6a19.6,19.6,0,0,0,2.2,9.6,18.09,18.09,0,0,0,6,6.5,27.51,27.51,0,0,0,8.7,3.7,43.18,43.18,0,0,0,10.3,1.2,42,42,0,0,0,14.25-2.25,20.31,20.31,0,0,0,9.8-7.1Q54.8,56.41,54.8,48.4a17.27,17.27,0,0,0-2.15-9A16.88,16.88,0,0,0,47.05,33.65Z"/><polygon class="cls-1" points="60.4 12.6 80.2 12.6 80.2 69.6 94.6 69.6 94.6 12.6 114.4 12.6 114.4 1 60.4 1 60.4 12.6"/><path class="cls-1" d="M158.4,47.7q0,5.59-2.85,8.7t-8.15,3.1q-5.21,0-8.1-3.1c-1.94-2.07-2.9-5-2.9-8.7V1H122.5V47.7q0,10.8,6.2,16.85t17.4,6h2.7q11.1,0,17.3-6t6.2-16.85V1H158.4Z"/><path class="cls-1" d="M228.4,7.45a24.38,24.38,0,0,0-8.7-4.85A35.52,35.52,0,0,0,208.9,1H183.5V69.6h25.4A34.32,34.32,0,0,0,219.7,68a24.79,24.79,0,0,0,8.7-4.9,22.43,22.43,0,0,0,5.8-8.2,29.67,29.67,0,0,0,2.1-11.65V27.4a30.06,30.06,0,0,0-2.1-11.7A22.37,22.37,0,0,0,228.4,7.45ZM221.5,44.1c0,3.67-.59,6.53-1.75,8.6a9.61,9.61,0,0,1-4.85,4.35,19.25,19.25,0,0,1-7.2,1.25h-9.6V12.1h9.6a17.92,17.92,0,0,1,7.2,1.35,10.14,10.14,0,0,1,4.85,4.45,17.45,17.45,0,0,1,1.75,8.5Z"/><polygon class="cls-1" points="246.1 11.6 260.1 11.6 260.1 58.9 246.1 58.9 246.1 69.6 288.69 69.6 288.69 58.9 274.69 58.9 274.69 11.6 288.69 11.6 288.69 1 246.1 1 246.1 11.6"/><path class="cls-1" d="M353,16.4a24.5,24.5,0,0,0-5.5-9.25,22,22,0,0,0-8.39-5.4A31.15,31.15,0,0,0,328.5,0h-2.21a30.44,30.44,0,0,0-10.5,1.75A22.77,22.77,0,0,0,307.4,7.1a24.39,24.39,0,0,0-5.61,9.25,40.17,40.17,0,0,0-2,13.35V40.9a40.86,40.86,0,0,0,2,13.4,23.8,23.8,0,0,0,5.54,9.2,22.8,22.8,0,0,0,8.46,5.35A31.07,31.07,0,0,0,326.4,70.6h2.2a30,30,0,0,0,10.6-1.8,22.75,22.75,0,0,0,8.34-5.4,24.06,24.06,0,0,0,5.5-9.2,40.22,40.22,0,0,0,2-13.3V29.7A40.27,40.27,0,0,0,353,16.4ZM340.29,43.6a24.4,24.4,0,0,1-1,7.55A12.7,12.7,0,0,1,336.6,56a10.35,10.35,0,0,1-4.1,2.65,15.08,15.08,0,0,1-5.1.85,14.63,14.63,0,0,1-5-.85A10.42,10.42,0,0,1,318.29,56a12.7,12.7,0,0,1-2.69-4.85,24.4,24.4,0,0,1-1-7.55V26.9a24.4,24.4,0,0,1,1-7.55,12.7,12.7,0,0,1,2.69-4.85,9.88,9.88,0,0,1,4.06-2.6,15.63,15.63,0,0,1,5-.8,16.12,16.12,0,0,1,5.1.8,9.83,9.83,0,0,1,4.1,2.6,12.7,12.7,0,0,1,2.69,4.85,24.4,24.4,0,0,1,1,7.55Z"/></g></g></svg>