<svg xmlns="http://www.w3.org/2000/svg" viewBox="0 0 234 68.6"><defs><style>.cls-1{fill:#fff;}</style></defs><g id="Layer_2" data-name="Layer 2"><g id="Layer_1-2" data-name="Layer 1"><polygon class="cls-1" points="0 11.6 19.8 11.6 19.8 68.6 34.2 68.6 34.2 11.6 54 11.6 54 0 0 0 0 11.6"/><polygon class="cls-1" points="79 57 79 39 107.3 39 107.3 28 79 28 79 11.2 109.6 11.2 111.2 0 64.7 0 64.7 68.6 111.6 68.6 110 57 79 57"/><polygon class="cls-1" points="174.3 0 159.9 0 148.4 22.1 148.1 22.1 135.9 0 119.8 0 137.7 32.4 117.6 68.6 132.7 68.6 145.7 43 146 43 160.3 68.6 176.5 68.6 156.4 32.5 174.3 0"/><polygon class="cls-1" points="180 0 180 11.6 199.8 11.6 199.8 68.6 214.2 68.6 214.2 11.6 234 11.6 234 0 180 0"/></g></g></svg>