<svg xmlns="http://www.w3.org/2000/svg" viewBox="0 0 778.09 70.6"><defs><style>.cls-1{fill:#fff;}</style></defs><g id="Layer_2" data-name="Layer 2"><g id="Layer_1-2" data-name="Layer 1"><path class="cls-1" d="M20.1,1,0,69.6H13.9l3.67-14.2H40.08L43.9,69.6H58.4L38.2,1Zm.18,43.9L28.4,13.5h.4l8.45,31.4Z"/><polygon class="cls-1" points="90 57.1 89.6 57.1 74.5 1 60 1 80.3 69.6 98.3 69.6 118.4 1 104.5 1 90 57.1"/><polygon class="cls-1" points="141.2 58 141.2 40 169.5 40 169.5 29 141.2 29 141.2 12.2 171.8 12.2 173.4 1 126.9 1 126.9 69.6 173.8 69.6 172.2 58 141.2 58"/><path class="cls-1" d="M236.6,62.4c-.74-1.8-1.1-4.9-1.1-9.3A21.6,21.6,0,0,0,234.3,46a16.58,16.58,0,0,0-3.55-6,12.65,12.65,0,0,0-6.05-3.5V36a13.76,13.76,0,0,0,8.8-5.75,18.59,18.59,0,0,0,3.3-11,17.33,17.33,0,0,0-2.6-9.55,17.93,17.93,0,0,0-7.15-6.35A22.93,22.93,0,0,0,216.6,1H185.3V69.6h14.2V42.3h11a9.35,9.35,0,0,1,4.35,1,9.13,9.13,0,0,1,3.3,2.9,15.6,15.6,0,0,1,2.15,4.7,23.88,23.88,0,0,1,.8,6.5,17,17,0,0,0,1.5,7.9,8.23,8.23,0,0,0,4.1,3.9,14.77,14.77,0,0,0,5.8,1.1,30.44,30.44,0,0,0,4.3-.3,15.77,15.77,0,0,0,3.8-1V65.9A5.7,5.7,0,0,1,236.6,62.4ZM220.2,28.5q-2.5,2.89-7.5,2.9H199.5V12.1h13.7q4.7,0,7.1,2.55a9.45,9.45,0,0,1,2.4,6.75A10.52,10.52,0,0,1,220.2,28.5Z"/><polygon class="cls-1" points="270.1 29.6 269.7 29.6 255.7 1 240.3 1 262 45 262 69.6 276.5 69.6 276.5 45 298.1 1 283.7 1 270.1 29.6"/><polygon class="cls-1" points="322.8 57.8 322.8 1 308.3 1 308.3 69.6 353.3 69.6 351.6 57.8 322.8 57.8"/><path class="cls-1" d="M409.34,7.15a21.93,21.93,0,0,0-8.4-5.4A31.07,31.07,0,0,0,390.29,0h-2.2a30.36,30.36,0,0,0-10.5,1.75,22.89,22.89,0,0,0-8.4,5.35,24.37,24.37,0,0,0-5.6,9.25,40.17,40.17,0,0,0-2,13.35V40.9a40.88,40.88,0,0,0,2,13.4,23.82,23.82,0,0,0,5.55,9.2,22.76,22.76,0,0,0,8.45,5.35,31.15,31.15,0,0,0,10.65,1.75h2.21A30,30,0,0,0,401,68.8a22.79,22.79,0,0,0,8.35-5.4,24.18,24.18,0,0,0,5.5-9.2,40.24,40.24,0,0,0,2-13.3V29.7a40.28,40.28,0,0,0-2-13.3A24.63,24.63,0,0,0,409.34,7.15ZM402.09,43.6a24.4,24.4,0,0,1-1,7.55A12.7,12.7,0,0,1,398.4,56a10.31,10.31,0,0,1-4.11,2.65,15.08,15.08,0,0,1-5.1.85,14.61,14.61,0,0,1-5-.85A10.42,10.42,0,0,1,380.09,56a12.7,12.7,0,0,1-2.69-4.85,24.4,24.4,0,0,1-1-7.55V26.9a24.4,24.4,0,0,1,1-7.55,12.7,12.7,0,0,1,2.69-4.85,9.88,9.88,0,0,1,4.06-2.6,15.61,15.61,0,0,1,5-.8,16.12,16.12,0,0,1,5.1.8,9.8,9.8,0,0,1,4.11,2.6,12.7,12.7,0,0,1,2.69,4.85,24.4,24.4,0,0,1,1,7.55Z"/><polygon class="cls-1" points="459.89 43.7 459.49 43.7 456.29 36.3 439.09 1 425.29 1 425.29 69.6 438.49 69.6 438.49 27.4 438.99 27.3 441.69 33.9 459.29 69.6 473.09 69.6 473.09 1 459.89 1 459.89 43.7"/><path class="cls-1" d="M535.49,56.2V32.6h-27.6v9.9h14.2v3.2q0,5.4-1.75,8.4a9.52,9.52,0,0,1-4.65,4.2,16.84,16.84,0,0,1-6.5,1.2,14.67,14.67,0,0,1-5.05-.85A10.45,10.45,0,0,1,500.09,56a12.84,12.84,0,0,1-2.7-4.85,24.7,24.7,0,0,1-1-7.55V26.9c0-4.07.55-7.23,1.65-9.5a10.13,10.13,0,0,1,4.55-4.85,14.31,14.31,0,0,1,6.5-1.45,13.56,13.56,0,0,1,7.3,1.75,10.5,10.5,0,0,1,4.15,4.9,18.81,18.81,0,0,1,1.35,7.45h13.6a28.68,28.68,0,0,0-2-10.95,21.61,21.61,0,0,0-5.4-7.9,23.23,23.23,0,0,0-7.95-4.75,29.2,29.2,0,0,0-9.8-1.6h-2.3a31.44,31.44,0,0,0-10.75,1.75,22.33,22.33,0,0,0-8.4,5.35,23.77,23.77,0,0,0-5.45,9.25,42.21,42.21,0,0,0-1.9,13.35V40.9a40.88,40.88,0,0,0,2,13.4A24.54,24.54,0,0,0,489,63.5a22.13,22.13,0,0,0,8.2,5.35,29,29,0,0,0,10.2,1.75h.9a22.5,22.5,0,0,0,10.2-2.4,16.92,16.92,0,0,0,7.3-6.7l2.3,8.1h8.1c-.2-1.93-.36-3.93-.5-6S535.49,59.07,535.49,56.2Z"/><polygon class="cls-1" points="581.89 47.3 581.49 47.3 575.09 1 564.79 1 558.39 47.3 557.99 47.3 551.49 1 539.19 1 548.09 69.6 562.79 69.6 568.99 26.2 569.39 26.2 575.69 69.6 590.29 69.6 599.19 1 588.29 1 581.89 47.3"/><path class="cls-1" d="M649.34,7.15a22.08,22.08,0,0,0-8.4-5.4A31.07,31.07,0,0,0,630.29,0h-2.2a30.36,30.36,0,0,0-10.5,1.75,22.81,22.81,0,0,0-8.4,5.35,24.25,24.25,0,0,0-5.6,9.25,40.17,40.17,0,0,0-2,13.35V40.9a40.88,40.88,0,0,0,1.95,13.4,23.82,23.82,0,0,0,5.55,9.2,22.76,22.76,0,0,0,8.45,5.35,31.07,31.07,0,0,0,10.65,1.75h2.2A30,30,0,0,0,641,68.8a22.87,22.87,0,0,0,8.35-5.4,24.18,24.18,0,0,0,5.5-9.2,40.5,40.5,0,0,0,1.95-13.3V29.7a40.54,40.54,0,0,0-1.95-13.3A24.63,24.63,0,0,0,649.34,7.15ZM642.09,43.6a24.4,24.4,0,0,1-1,7.55,12.84,12.84,0,0,1-2.7,4.85,10.28,10.28,0,0,1-4.1,2.65,15.08,15.08,0,0,1-5.1.85,14.67,14.67,0,0,1-5.05-.85,10.31,10.31,0,0,1-4-2.65,12.84,12.84,0,0,1-2.7-4.85,24.4,24.4,0,0,1-1-7.55V26.9a24.4,24.4,0,0,1,1-7.55,12.84,12.84,0,0,1,2.7-4.85,9.78,9.78,0,0,1,4-2.6,15.67,15.67,0,0,1,5.05-.8,16.12,16.12,0,0,1,5.1.8,9.76,9.76,0,0,1,4.1,2.6,12.84,12.84,0,0,1,2.7,4.85,24.4,24.4,0,0,1,1,7.55Z"/><path class="cls-1" d="M716.59,62.4c-.74-1.8-1.1-4.9-1.1-9.3a21.6,21.6,0,0,0-1.2-7.15,16.44,16.44,0,0,0-3.55-6,12.61,12.61,0,0,0-6-3.5V36a13.76,13.76,0,0,0,8.8-5.75,18.59,18.59,0,0,0,3.3-11,17.33,17.33,0,0,0-2.6-9.55A17.86,17.86,0,0,0,707,3.3,22.9,22.9,0,0,0,696.59,1h-31.3V69.6h14.2V42.3h11a9.35,9.35,0,0,1,4.35,1,9.13,9.13,0,0,1,3.3,2.9,15.36,15.36,0,0,1,2.15,4.7,23.88,23.88,0,0,1,.8,6.5,17,17,0,0,0,1.5,7.9,8.27,8.27,0,0,0,4.1,3.9,14.77,14.77,0,0,0,5.8,1.1,30.34,30.34,0,0,0,4.3-.3,15.65,15.65,0,0,0,3.8-1V65.9A5.72,5.72,0,0,1,716.59,62.4Zm-16.4-33.9q-2.51,2.89-7.5,2.9h-13.2V12.1h13.7q4.69,0,7.1,2.55a9.45,9.45,0,0,1,2.4,6.75A10.52,10.52,0,0,1,700.19,28.5Z"/><path class="cls-1" d="M776,15.7a22.37,22.37,0,0,0-5.8-8.25,24.38,24.38,0,0,0-8.7-4.85A35.47,35.47,0,0,0,750.69,1h-25.4V69.6h25.4A34.28,34.28,0,0,0,761.49,68a24.79,24.79,0,0,0,8.7-4.9,22.43,22.43,0,0,0,5.8-8.2,29.67,29.67,0,0,0,2.1-11.65V27.4A30.06,30.06,0,0,0,776,15.7Zm-12.7,28.4c0,3.67-.59,6.53-1.75,8.6a9.61,9.61,0,0,1-4.85,4.35,19.25,19.25,0,0,1-7.2,1.25h-9.6V12.1h9.6a17.92,17.92,0,0,1,7.2,1.35,10.14,10.14,0,0,1,4.85,4.45,17.45,17.45,0,0,1,1.75,8.5Z"/></g></g></svg>