<svg xmlns="http://www.w3.org/2000/svg" viewBox="0 0 471.29 70.6"><defs><style>.cls-1{fill:#fff;}</style></defs><g id="Layer_2" data-name="Layer 2"><g id="Layer_1-2" data-name="Layer 1"><path class="cls-1" d="M42.2,3.7A19.26,19.26,0,0,0,32.1,1H0V69.6H14.2V42.7H32.1A19,19,0,0,0,42.2,40a21.07,21.07,0,0,0,7.25-7.4A19.6,19.6,0,0,0,52.2,22.4V20.9A18.9,18.9,0,0,0,49.45,11,21,21,0,0,0,42.2,3.7ZM36.35,26.8a9.07,9.07,0,0,1-8.15,4.7h-14V12.1h14a8.85,8.85,0,0,1,4.9,1.35A9.62,9.62,0,0,1,36.4,17a9.88,9.88,0,0,1,1.2,4.8A10,10,0,0,1,36.35,26.8Z"/><path class="cls-1" d="M111.3,62.4c-.74-1.8-1.1-4.9-1.1-9.3A21.6,21.6,0,0,0,109,46a16.58,16.58,0,0,0-3.55-6,12.65,12.65,0,0,0-6-3.5V36a13.76,13.76,0,0,0,8.8-5.75,18.59,18.59,0,0,0,3.3-11,17.31,17.31,0,0,0-2.6-9.55,17.93,17.93,0,0,0-7.15-6.35A22.93,22.93,0,0,0,91.3,1H60V69.6H74.2V42.3h11a9.35,9.35,0,0,1,4.35,1,9.13,9.13,0,0,1,3.3,2.9A15.49,15.49,0,0,1,95,50.9a23.88,23.88,0,0,1,.8,6.5,17,17,0,0,0,1.5,7.9,8.23,8.23,0,0,0,4.1,3.9,14.77,14.77,0,0,0,5.8,1.1,30.44,30.44,0,0,0,4.3-.3,15.77,15.77,0,0,0,3.8-1V65.9A5.7,5.7,0,0,1,111.3,62.4ZM94.9,28.5q-2.5,2.89-7.5,2.9H74.2V12.1H87.9q4.69,0,7.1,2.55a9.45,9.45,0,0,1,2.4,6.75A10.52,10.52,0,0,1,94.9,28.5Z"/><path class="cls-1" d="M164.05,7.15a22.08,22.08,0,0,0-8.4-5.4A31.15,31.15,0,0,0,145,0h-2.2a30.36,30.36,0,0,0-10.5,1.75,22.81,22.81,0,0,0-8.4,5.35,24.25,24.25,0,0,0-5.6,9.25,39.91,39.91,0,0,0-2,13.35V40.9a40.88,40.88,0,0,0,2,13.4,23.89,23.89,0,0,0,5.55,9.2,22.68,22.68,0,0,0,8.45,5.35A31.07,31.07,0,0,0,142.9,70.6h2.2a30,30,0,0,0,10.6-1.8,22.87,22.87,0,0,0,8.35-5.4,24.31,24.31,0,0,0,5.5-9.2,40.54,40.54,0,0,0,1.95-13.3V29.7a40.54,40.54,0,0,0-1.95-13.3A24.76,24.76,0,0,0,164.05,7.15ZM156.8,43.6a24.7,24.7,0,0,1-1,7.55A12.84,12.84,0,0,1,153.1,56a10.35,10.35,0,0,1-4.1,2.65,15.08,15.08,0,0,1-5.1.85,14.63,14.63,0,0,1-5.05-.85,10.31,10.31,0,0,1-4-2.65,12.58,12.58,0,0,1-2.7-4.85,24.4,24.4,0,0,1-1-7.55V26.9a24.4,24.4,0,0,1,1-7.55,12.58,12.58,0,0,1,2.7-4.85,9.78,9.78,0,0,1,4-2.6,15.63,15.63,0,0,1,5.05-.8,16.12,16.12,0,0,1,5.1.8,9.83,9.83,0,0,1,4.1,2.6,12.84,12.84,0,0,1,2.7,4.85,24.7,24.7,0,0,1,1,7.55Z"/><path class="cls-1" d="M211.7,51.6a7.8,7.8,0,0,1-2.4,6.2,9.21,9.21,0,0,1-11.65.05q-2.35-2.06-2.35-6.25V47.4H181.9v4.8a18,18,0,0,0,2.65,10,16.91,16.91,0,0,0,7.3,6.25A25.16,25.16,0,0,0,202.5,70.6h2a27.22,27.22,0,0,0,11-2.1,16.73,16.73,0,0,0,10.4-16.3V1H211.7Z"/><polygon class="cls-1" points="255.9 58 255.9 40 284.19 40 284.19 29 255.9 29 255.9 12.2 286.5 12.2 288.1 1 241.6 1 241.6 69.6 288.5 69.6 286.9 58 255.9 58"/><path class="cls-1" d="M312.1,19.35a13.07,13.07,0,0,1,2.65-4.85,9.45,9.45,0,0,1,3.95-2.6,14.85,14.85,0,0,1,4.9-.8q5,0,7.75,1.8a9.55,9.55,0,0,1,3.85,5.5,34.25,34.25,0,0,1,1.09,9.5H350q0-9.41-3.1-15.55a21.15,21.15,0,0,0-8.7-9.25A26.83,26.83,0,0,0,325,0h-2.21a30.44,30.44,0,0,0-10.5,1.75A22.77,22.77,0,0,0,303.9,7.1a24.39,24.39,0,0,0-5.61,9.25,40.17,40.17,0,0,0-2,13.35V40.9a40.86,40.86,0,0,0,2,13.4,23.88,23.88,0,0,0,5.54,9.2,22.8,22.8,0,0,0,8.46,5.35A31.07,31.07,0,0,0,322.9,70.6h2.2a25.3,25.3,0,0,0,13.15-3.3,22.43,22.43,0,0,0,8.65-9.5,33.32,33.32,0,0,0,3.1-15H336.79q0,8.7-2.84,12.7c-1.91,2.67-5.35,4-10.35,4a13.91,13.91,0,0,1-4.9-.85A10,10,0,0,1,314.75,56a13.07,13.07,0,0,1-2.65-4.85,24.4,24.4,0,0,1-1-7.55V26.9A24.4,24.4,0,0,1,312.1,19.35Z"/><polygon class="cls-1" points="356.89 12.6 376.69 12.6 376.69 69.6 391.1 69.6 391.1 12.6 410.89 12.6 410.89 1 356.89 1 356.89 12.6"/><path class="cls-1" d="M469.14,39.35a16.88,16.88,0,0,0-5.6-5.7,31.53,31.53,0,0,0-7.55-3.4c-2.73-.83-5.46-1.57-8.2-2.2s-5.25-1.3-7.55-2a14.76,14.76,0,0,1-5.5-2.85,6.09,6.09,0,0,1-2.05-4.8,6.24,6.24,0,0,1,1.45-4.25,9,9,0,0,1,4.05-2.5,19.62,19.62,0,0,1,6.1-.85,17.26,17.26,0,0,1,6.5,1.1,9.07,9.07,0,0,1,4.15,3.15,8,8,0,0,1,1.45,4.75V21h13.3V19.7q0-6.9-3.45-11.25a20,20,0,0,0-9.2-6.4,37.64,37.64,0,0,0-12.75-2,38.25,38.25,0,0,0-13.05,2.15,21.63,21.63,0,0,0-9.55,6.5,16.75,16.75,0,0,0-3.6,11,18.35,18.35,0,0,0,2.1,9.25,17,17,0,0,0,5.5,5.85,30.89,30.89,0,0,0,7.55,3.5c2.77.87,5.5,1.63,8.2,2.3s5.19,1.37,7.45,2.1a15.34,15.34,0,0,1,5.5,2.95,6.26,6.26,0,0,1,2.1,5A7.84,7.84,0,0,1,455,55.5a8.34,8.34,0,0,1-4.3,2.8,24.09,24.09,0,0,1-7.15.9,21.17,21.17,0,0,1-7.45-1.15A8.82,8.82,0,0,1,430,49.2v-.9a5.15,5.15,0,0,1,.1-.9h-13.5a5.85,5.85,0,0,0-.1,1.05V49.6a19.74,19.74,0,0,0,2.2,9.6,18.17,18.17,0,0,0,6,6.5,27.71,27.71,0,0,0,8.7,3.7,43.18,43.18,0,0,0,10.3,1.2,41.87,41.87,0,0,0,14.25-2.25,20.27,20.27,0,0,0,9.8-7.1q3.56-4.84,3.55-12.85A17.18,17.18,0,0,0,469.14,39.35Z"/></g></g></svg>