<?xml version="1.0" encoding="utf-8"?>
<!-- Generator: Adobe Illustrator 24.2.3, SVG Export Plug-In . SVG Version: 6.00 Build 0)  -->
<svg version="1.1" id="Layer_1" xmlns="http://www.w3.org/2000/svg" xmlns:xlink="http://www.w3.org/1999/xlink" x="0px" y="0px"
	 viewBox="0 0 848.6 112.7" style="enable-background:new 0 0 848.6 112.7;" xml:space="preserve">
<g>
	<g>
		<path d="M56.4,22.6v10.7H12.1V22.6H56.4z M40.5,22.6v64H27.7v-64H40.5z"/>
		<path d="M63.8,22.6h20.5c4.3,0,7.9,0.7,10.9,2.2c3,1.5,5.3,3.6,6.9,6.5c1.6,2.9,2.4,6.4,2.4,10.6c0,3.5-0.5,6.4-1.4,8.9
			c-0.9,2.4-2.3,4.5-4,6.1c-1.7,1.6-3.8,2.9-6.2,3.9l-3.9,2.3H72.5l0-10.7H84c1.8,0,3.2-0.4,4.4-1.2c1.2-0.8,2-1.9,2.6-3.3
			c0.6-1.4,0.9-3.1,0.9-5c0-2-0.3-3.8-0.8-5.2c-0.5-1.5-1.3-2.6-2.4-3.3c-1.1-0.8-2.5-1.1-4.3-1.1h-7.6v53.3H63.8V22.6z M92.9,86.6
			L81.2,58.1l13.5,0l12,27.9v0.6H92.9z"/>
		<path d="M127,22.6v64h-12.8v-64H127z"/>
		<path d="M165,69.8c0-1.1-0.1-2.2-0.3-3.1c-0.2-0.9-0.6-1.8-1.3-2.6c-0.7-0.8-1.6-1.6-2.9-2.4c-1.2-0.8-2.9-1.6-4.9-2.5
			c-2.4-1-4.7-2.1-6.9-3.2c-2.2-1.1-4.2-2.4-6-3.9c-1.8-1.5-3.2-3.3-4.2-5.3c-1-2-1.6-4.4-1.6-7.2c0-2.7,0.5-5.1,1.5-7.3
			c1-2.2,2.4-4.1,4.2-5.6c1.8-1.6,3.9-2.8,6.4-3.6c2.5-0.8,5.2-1.3,8.2-1.3c4.1,0,7.7,0.9,10.7,2.5c3,1.7,5.3,4,7,7
			c1.7,3,2.5,6.4,2.5,10.2h-12.8c0-1.8-0.3-3.4-0.8-4.8c-0.5-1.4-1.3-2.5-2.4-3.3c-1.1-0.8-2.5-1.2-4.3-1.2c-1.6,0-3,0.3-4.1,1
			c-1.1,0.7-1.9,1.5-2.4,2.7c-0.5,1.1-0.8,2.4-0.8,3.8c0,1.1,0.3,2,0.8,2.8c0.5,0.8,1.2,1.6,2.1,2.2c0.9,0.7,2,1.3,3.2,1.9
			c1.2,0.6,2.6,1.2,4.1,1.8c2.9,1.1,5.5,2.4,7.7,3.8c2.2,1.4,4.1,2.9,5.6,4.6c1.5,1.7,2.6,3.6,3.4,5.7c0.8,2.1,1.1,4.5,1.1,7.2
			c0,2.7-0.5,5.1-1.4,7.3c-0.9,2.2-2.3,4.1-4,5.6c-1.8,1.6-3.9,2.8-6.4,3.6c-2.5,0.8-5.2,1.3-8.3,1.3c-3,0-5.8-0.4-8.4-1.3
			c-2.6-0.8-5-2.1-7-3.8c-2-1.7-3.6-3.9-4.7-6.5c-1.1-2.7-1.7-5.8-1.7-9.4h12.9c0,1.9,0.2,3.6,0.6,4.9c0.4,1.4,1,2.4,1.8,3.3
			c0.8,0.8,1.8,1.4,2.9,1.8c1.2,0.4,2.5,0.6,4,0.6c1.7,0,3.1-0.3,4.1-0.9c1-0.6,1.7-1.5,2.2-2.6C164.7,72.4,165,71.1,165,69.8z"/>
		<path d="M227.8,22.6v10.7h-44.3V22.6H227.8z M211.9,22.6v64h-12.8v-64H211.9z"/>
		<path d="M258.5,34.1l-13.8,52.6h-13.6l20-64h8.5L258.5,34.1z M269.8,62.8v10.7h-28.9V62.8H269.8z M269.3,86.6l-13.8-52.6
			l-1.3-11.4h8.6l20.2,64H269.3z"/>
		<path d="M333.8,22.6v64h-12.4l-20.1-40v40H289v-64h12.3l20.3,40.5V22.6H333.8z"/>
		<path d="M374.4,22.6l12.1,50.3l2,13.7h-9.4l-18.4-64H374.4z M384.8,72.9l12.1-50.3h13.9l-18.5,64h-9.4L384.8,72.9z"/>
		<path d="M440.1,34.1l-13.8,52.6h-13.6l20-64h8.5L440.1,34.1z M451.4,62.8v10.7h-28.9V62.8H451.4z M450.9,86.6L437,34.1l-1.3-11.4
			h8.6l20.2,64H450.9z"/>
		<path d="M515.3,22.6v64h-12.4l-20.1-40v40h-12.2v-64h12.3l20.3,40.5V22.6H515.3z"/>
		<path d="M589.9,53v26.4c-0.9,1-2.2,2.1-4,3.4c-1.7,1.3-4,2.4-6.8,3.3c-2.8,1-6.2,1.4-10.2,1.4c-3.5,0-6.8-0.6-9.6-1.7
			c-2.9-1.1-5.4-2.8-7.4-5.1c-2.1-2.3-3.6-5.1-4.7-8.5c-1.1-3.4-1.6-7.5-1.6-12.2V49.2c0-4.7,0.5-8.7,1.6-12.2
			c1-3.4,2.6-6.3,4.5-8.6s4.4-4,7.1-5.1c2.8-1.1,5.9-1.7,9.4-1.7c4.8,0,8.8,0.8,11.8,2.4c3.1,1.6,5.4,4,7,7.2
			c1.6,3.2,2.6,7.1,2.9,11.7h-12.4c-0.2-2.7-0.7-4.8-1.4-6.3c-0.7-1.5-1.6-2.6-2.9-3.3s-2.8-1-4.8-1c-1.7,0-3.2,0.3-4.4,0.9
			s-2.3,1.6-3.2,2.9c-0.8,1.3-1.5,3.1-1.9,5.2s-0.6,4.7-0.6,7.8v10.9c0,3,0.2,5.6,0.7,7.7c0.5,2.1,1.1,3.9,2.1,5.2
			c0.9,1.3,2.1,2.3,3.5,2.9c1.4,0.6,3.1,0.9,5,0.9c1.6,0,2.8-0.2,3.7-0.5c0.9-0.3,1.7-0.6,2.3-1c0.6-0.4,1-0.7,1.4-0.9V62.7h-9.2V53
			H589.9z"/>
		<path d="M622.3,34.1l-13.8,52.6H595l20-64h8.5L622.3,34.1z M633.6,62.8v10.7h-28.9V62.8H633.6z M633.2,86.6l-13.8-52.6L618,22.6
			h8.6l20.2,64H633.2z"/>
		<path d="M652.9,22.6h20.5c4.3,0,7.9,0.7,10.9,2.2c3,1.5,5.3,3.6,6.9,6.5c1.6,2.9,2.4,6.4,2.4,10.6c0,3.5-0.5,6.4-1.4,8.9
			c-0.9,2.4-2.3,4.5-4,6.1c-1.7,1.6-3.8,2.9-6.2,3.9l-3.9,2.3h-16.7l0-10.7h11.6c1.8,0,3.2-0.4,4.4-1.2c1.2-0.8,2-1.9,2.6-3.3
			c0.6-1.4,0.9-3.1,0.9-5c0-2-0.3-3.8-0.8-5.2s-1.3-2.6-2.4-3.3c-1.1-0.8-2.5-1.1-4.3-1.1h-7.6v53.3h-12.9V22.6z M682,86.6
			l-11.7-28.5l13.5,0l12,27.9v0.6H682z"/>
		<path d="M729.7,69.8c0-1.1-0.1-2.2-0.3-3.1s-0.6-1.8-1.3-2.6c-0.7-0.8-1.6-1.6-2.9-2.4s-2.9-1.6-4.9-2.5c-2.4-1-4.7-2.1-6.9-3.2
			c-2.2-1.1-4.2-2.4-6-3.9s-3.2-3.3-4.2-5.3c-1-2-1.6-4.4-1.6-7.2c0-2.7,0.5-5.1,1.5-7.3c1-2.2,2.4-4.1,4.2-5.6
			c1.8-1.6,3.9-2.8,6.4-3.6c2.5-0.8,5.2-1.3,8.2-1.3c4.1,0,7.7,0.9,10.7,2.5c3,1.7,5.3,4,7,7c1.7,3,2.5,6.4,2.5,10.2h-12.8
			c0-1.8-0.3-3.4-0.8-4.8c-0.5-1.4-1.3-2.5-2.4-3.3s-2.5-1.2-4.3-1.2c-1.6,0-3,0.3-4.1,1c-1.1,0.7-1.9,1.5-2.4,2.7
			c-0.5,1.1-0.8,2.4-0.8,3.8c0,1.1,0.3,2,0.8,2.8c0.5,0.8,1.2,1.6,2.1,2.2c0.9,0.7,2,1.3,3.2,1.9c1.2,0.6,2.6,1.2,4.1,1.8
			c2.9,1.1,5.5,2.4,7.7,3.8s4.1,2.9,5.6,4.6c1.5,1.7,2.6,3.6,3.4,5.7c0.8,2.1,1.1,4.5,1.1,7.2c0,2.7-0.5,5.1-1.4,7.3
			c-0.9,2.2-2.3,4.1-4,5.6c-1.8,1.6-3.9,2.8-6.4,3.6s-5.2,1.3-8.3,1.3c-3,0-5.8-0.4-8.4-1.3c-2.6-0.8-5-2.1-7-3.8
			c-2-1.7-3.6-3.9-4.7-6.5c-1.1-2.7-1.7-5.8-1.7-9.4h12.9c0,1.9,0.2,3.6,0.6,4.9c0.4,1.4,1,2.4,1.8,3.3c0.8,0.8,1.8,1.4,2.9,1.8
			s2.5,0.6,4,0.6c1.7,0,3.1-0.3,4.1-0.9c1-0.6,1.7-1.5,2.2-2.6C729.5,72.4,729.7,71.1,729.7,69.8z"/>
		<path d="M778.3,69.8c0-1.1-0.1-2.2-0.3-3.1s-0.6-1.8-1.3-2.6c-0.7-0.8-1.6-1.6-2.9-2.4s-2.9-1.6-4.9-2.5c-2.4-1-4.7-2.1-6.9-3.2
			c-2.2-1.1-4.2-2.4-6-3.9s-3.2-3.3-4.2-5.3c-1-2-1.6-4.4-1.6-7.2c0-2.7,0.5-5.1,1.5-7.3c1-2.2,2.4-4.1,4.2-5.6
			c1.8-1.6,3.9-2.8,6.4-3.6c2.5-0.8,5.2-1.3,8.2-1.3c4.1,0,7.7,0.9,10.7,2.5c3,1.7,5.3,4,7,7c1.7,3,2.5,6.4,2.5,10.2h-12.8
			c0-1.8-0.3-3.4-0.8-4.8c-0.5-1.4-1.3-2.5-2.4-3.3s-2.5-1.2-4.3-1.2c-1.6,0-3,0.3-4.1,1c-1.1,0.7-1.9,1.5-2.4,2.7
			c-0.5,1.1-0.8,2.4-0.8,3.8c0,1.1,0.3,2,0.8,2.8c0.5,0.8,1.2,1.6,2.1,2.2c0.9,0.7,2,1.3,3.2,1.9c1.2,0.6,2.6,1.2,4.1,1.8
			c2.9,1.1,5.5,2.4,7.7,3.8s4.1,2.9,5.6,4.6c1.5,1.7,2.6,3.6,3.4,5.7c0.8,2.1,1.1,4.5,1.1,7.2c0,2.7-0.5,5.1-1.4,7.3
			c-0.9,2.2-2.3,4.1-4,5.6c-1.8,1.6-3.9,2.8-6.4,3.6s-5.2,1.3-8.3,1.3c-3,0-5.8-0.4-8.4-1.3c-2.6-0.8-5-2.1-7-3.8
			c-2-1.7-3.6-3.9-4.7-6.5c-1.1-2.7-1.7-5.8-1.7-9.4h12.9c0,1.9,0.2,3.6,0.6,4.9c0.4,1.4,1,2.4,1.8,3.3c0.8,0.8,1.8,1.4,2.9,1.8
			s2.5,0.6,4,0.6c1.7,0,3.1-0.3,4.1-0.9c1-0.6,1.7-1.5,2.2-2.6C778.1,72.4,778.3,71.1,778.3,69.8z"/>
		<path d="M812.7,22.6v64h-12.9v-64H812.7z M836.4,22.6v10.7h-27.7V22.6H836.4z M832.8,48.5v10.4h-24.1V48.5H832.8z M836.5,75.9
			v10.7h-27.8V75.9H836.5z"/>
	</g>
</g>
</svg>
