<?xml version="1.0" encoding="utf-8"?>
<!-- Generator: Adobe Illustrator 24.2.3, SVG Export Plug-In . SVG Version: 6.00 Build 0)  -->
<svg version="1.1" id="Layer_1" xmlns="http://www.w3.org/2000/svg" xmlns:xlink="http://www.w3.org/1999/xlink" x="0px" y="0px"
	 viewBox="0 0 21.2 40.6" style="enable-background:new 0 0 21.2 40.6;" xml:space="preserve">
<style type="text/css">
	.st0{fill:none;}
	.st1{fill:#FFFFFF;}
</style>
<rect x="4.9" y="1.1" class="st0" width="14.5" height="6.8"/>
<path class="st0" d="M18.7,21.9c-0.3,0-0.6,0.1-0.8,0.3c-0.2,0.3-0.4,0.7-0.4,1.1v0.8c0,0,0,0,0,0.1v3.1c0.1,0.6,0.7,1.1,1.3,1
	c0.5-0.1,0.9-0.5,1-1c0-0.7,0.1-1.5,0.1-2.4c0-0.4,0-0.7,0.1-1.1C20,23.4,19.9,21.9,18.7,21.9z"/>
<path class="st0" d="M3.8,24c1.6,0.1,3.2,0,4.7-0.3c0.1-0.8,0.5-1.4,1.2-1.9c-0.2-0.3-0.5-0.4-0.8-0.3c-1.2-0.1-2.4-0.3-3.6-0.6
	c-0.3-0.1-0.5-0.4-0.4-0.7C5,20,5.1,19.8,5.3,19.8c0.8-0.2,1.5-0.7,2-1.3c0.2-0.3,0.6-0.4,0.8-0.2s0.4,0.6,0.2,0.8l0,0
	c-0.3,0.4-0.6,0.7-1,1c0.5,0.1,1.1,0.2,1.6,0.2c0.9-0.1,1.7,0.4,2,1.2H11c0.6,0,1.2,0.2,1.7,0.7c0.1,0.1,0.1,0.1,0.2,0.2l0.1-0.1
	c0.5-0.5,1.2-0.8,2-0.8c0.6,0,1.1,0.1,1.6,0.5c0.3-0.8,1.2-1.3,2.1-1.3l0,0c0.5,0,1,0.1,1.4,0.4c0-3-0.1-6.1-1.1-6.9
	c-1.7-1.5-1.8-3.9-1.8-5.2H6.9v2.2c0,0.9-3.5,3.7-4.3,4.3c-0.9,2.3-1.8,5.1-1.6,5.8C1.4,22.7,2.5,23.7,3.8,24z"/>
<path class="st0" d="M14.9,22.7c-0.6-0.1-1.2,0.3-1.3,0.9c0,0.1,0,0.2,0,0.4v3.9c0,0.5,0.6,1,1.3,1c0.6,0.1,1.2-0.4,1.3-1l0.1-3.8
	l0,0c0-0.4-0.1-0.7-0.3-1C15.7,22.8,15.3,22.7,14.9,22.7z"/>
<path class="st0" d="M5.7,25.3c0,1.8,0,8.3,0.1,12.7c0,0.8,0.6,1.4,1.3,1.4c0,0,0,0,0.1,0c0.3,0,0.6-0.1,0.8-0.3
	c0.3-0.3,0.5-0.7,0.5-1.1V25C7.8,25.1,6.8,25.2,5.7,25.3z"/>
<path class="st0" d="M11.1,22.7c-1.3,0-1.4,1.3-1.4,1.6v4.4c0.1,0.7,0.8,1.3,1.5,1.2c0.6-0.1,1.1-0.5,1.2-1.1v-4.2
	c0-0.5-0.2-1-0.5-1.4C11.7,22.8,11.4,22.7,11.1,22.7z"/>
<path class="st1" d="M3.7,25.2c0.3,0,0.5,0.1,0.8,0.1c0,2.3,0.1,9.4,0.1,12.7c0,1.4,1.1,2.6,2.5,2.6l0,0c0.6,0,1.2-0.2,1.7-0.7
	s0.8-1.2,0.8-1.9v-7.3c0.4,0.2,0.9,0.4,1.4,0.4c1,0,1.9-0.5,2.3-1.4c0.5,0.3,1,0.5,1.6,0.5c0.9,0,1.8-0.4,2.2-1.2
	c0.4,0.3,1,0.5,1.5,0.5c1.3,0,2.3-0.9,2.4-2.2c0-0.7,0.1-1.5,0.1-2.4c0-0.4,0-0.8,0.1-1.1c0,0,0,0,0-0.1l0,0c0.2-4.9,0.1-9-1.4-10.3
	c-1.3-1.2-1.4-3.3-1.3-4.2h1.6c0.3,0,0.6-0.3,0.6-0.6v-8c0-0.3-0.3-0.6-0.6-0.6H4.4C4.1,0,3.8,0.3,3.8,0.6v8c0,0.3,0.3,0.6,0.6,0.6
	h1.5v2.1c-1.2,1.3-2.5,2.5-3.9,3.5c-0.1,0.1-0.2,0.2-0.2,0.3c-0.5,1.2-2.1,5.4-1.7,6.8C0.4,23.5,1.9,24.9,3.7,25.2z M8,39
	c-0.2,0.2-0.5,0.3-0.8,0.3c0,0,0,0-0.1,0c-0.7,0-1.3-0.6-1.3-1.4C5.7,33.5,5.7,27,5.7,25.2c1.1,0,2.1-0.2,2.8-0.3v13
	C8.5,38.4,8.3,38.7,8,39z M12.4,24.5v4.2c-0.1,0.7-0.8,1.2-1.5,1.1c-0.6-0.1-1.1-0.6-1.1-1.2v-4.4c0-0.3,0.1-1.6,1.4-1.6
	c0.3,0,0.6,0.1,0.8,0.3C12.2,23.5,12.4,24,12.4,24.5L12.4,24.5z M16.3,24.1C16.3,24.1,16.3,24.2,16.3,24.1l-0.1,3.8
	c-0.1,0.6-0.7,1-1.3,1c-0.7,0-1.3-0.5-1.3-1V24c-0.1-0.6,0.4-1.2,1-1.3c0.1,0,0.2,0,0.4,0c0.4,0,0.8,0.1,1,0.4
	C16.2,23.4,16.3,23.8,16.3,24.1L16.3,24.1z M19.9,24.8c0,0.9-0.1,1.7-0.1,2.4c-0.1,0.6-0.7,1.1-1.3,1c-0.5-0.1-0.9-0.5-1-1v-3.1
	c0,0,0,0,0-0.1v-0.8c0-0.4,0.1-0.8,0.4-1.1c0.2-0.2,0.5-0.3,0.8-0.3c1.2,0,1.3,1.5,1.3,1.7C20,24.1,20,24.5,19.9,24.8L19.9,24.8z
	 M4.9,1.1h14.5v6.8H4.9V1.1z M2.7,15.6C3.5,15,7,12.3,7,11.3V9.1h10.2c-0.1,1.2,0,3.7,1.8,5.2c1,0.8,1.2,3.9,1.1,6.9
	c-0.4-0.3-0.9-0.4-1.4-0.4l0,0c-0.9-0.1-1.8,0.5-2.1,1.3c-0.5-0.3-1-0.5-1.6-0.5c-0.7,0-1.4,0.2-2,0.8l-0.1,0.1
	c-0.1-0.1-0.1-0.1-0.2-0.2c-0.4-0.4-1-0.7-1.7-0.7c-0.1,0-0.1,0-0.1,0c-0.3-0.8-1.1-1.3-2-1.2c-0.5,0-1.1-0.1-1.6-0.2
	c0.4-0.3,0.7-0.6,1-1c0.2-0.3,0.1-0.6-0.2-0.8s-0.6-0.1-0.8,0.2c-0.5,0.6-1.2,1-2,1.3C5,20,4.8,20.3,4.9,20.6
	C5,20.8,5.1,20.9,5.3,21c1.2,0.3,2.4,0.5,3.6,0.6c0.3,0,0.6,0.1,0.8,0.3c-0.6,0.4-1.1,1.1-1.2,1.9c-1.6,0.3-3.2,0.3-4.7,0.3
	c-1.4-0.3-2.4-1.3-2.8-2.7C0.9,20.7,1.7,17.9,2.7,15.6L2.7,15.6z"/>
</svg>
