<?xml version="1.0" encoding="utf-8"?>
<!-- Generator: Adobe Illustrator 24.2.3, SVG Export Plug-In . SVG Version: 6.00 Build 0)  -->
<svg version="1.1" xmlns="http://www.w3.org/2000/svg" xmlns:xlink="http://www.w3.org/1999/xlink" x="0px" y="0px"
	 viewBox="0 0 100 86.8" style="enable-background:new 0 0 100 86.8;" xml:space="preserve">
<style type="text/css">
	.st0{fill:#FFFFFF;}
</style>
<g id="Layer_2">
</g>
<g id="Layer_1">
	<g>
		<path class="st0" d="M85.2,7.1h-9.1V3.9c0-2.2-1.7-3.9-3.9-3.9c-2.2,0-3.9,1.7-3.9,3.9v3.2H31.7V3.9C31.7,1.7,30,0,27.8,0
			s-3.9,1.7-3.9,3.9v3.2h-9.1C8,7.1,2.5,12.6,2.5,19.4v55.1c0,6.8,5.5,12.3,12.3,12.3h70.3c6.8,0,12.3-5.5,12.3-12.3V19.4
			C97.5,12.6,92,7.1,85.2,7.1z M14.8,14.9h70.3c2.5,0,4.5,2,4.5,4.5v3.3H10.3v-3.3C10.3,16.9,12.3,14.9,14.8,14.9z M85.2,79H14.8
			c-2.5,0-4.5-2-4.5-4.5v-44h79.4v44C89.7,77,87.7,79,85.2,79z"/>
		<path class="st0" d="M30.8,39.1h-9c-1.4,0-2.5,1.1-2.5,2.5v6c0,1.4,1.1,2.5,2.5,2.5h9c1.4,0,2.5-1.1,2.5-2.5v-6
			C33.3,40.2,32.2,39.1,30.8,39.1z"/>
		<path class="st0" d="M54.5,39.1h-9c-1.4,0-2.5,1.1-2.5,2.5v6c0,1.4,1.1,2.5,2.5,2.5h9c1.4,0,2.5-1.1,2.5-2.5v-6
			C57,40.2,55.9,39.1,54.5,39.1z"/>
		<path class="st0" d="M78.2,39.1h-9c-1.4,0-2.5,1.1-2.5,2.5v6c0,1.4,1.1,2.5,2.5,2.5h9c1.4,0,2.5-1.1,2.5-2.5v-6
			C80.7,40.2,79.6,39.1,78.2,39.1z"/>
		<path class="st0" d="M30.8,59.8h-9c-1.4,0-2.5,1.1-2.5,2.5v6c0,1.4,1.1,2.5,2.5,2.5h9c1.4,0,2.5-1.1,2.5-2.5v-6
			C33.3,60.9,32.2,59.8,30.8,59.8z"/>
		<path class="st0" d="M54.5,59.8h-9c-1.4,0-2.5,1.1-2.5,2.5v6c0,1.4,1.1,2.5,2.5,2.5h9c1.4,0,2.5-1.1,2.5-2.5v-6
			C57,60.9,55.9,59.8,54.5,59.8z"/>
		<path class="st0" d="M78.2,59.8h-9c-1.4,0-2.5,1.1-2.5,2.5v6c0,1.4,1.1,2.5,2.5,2.5h9c1.4,0,2.5-1.1,2.5-2.5v-6
			C80.7,60.9,79.6,59.8,78.2,59.8z"/>
	</g>
</g>
</svg>
