<?xml version="1.0" encoding="utf-8"?>
<!-- Generator: Adobe Illustrator 24.2.3, SVG Export Plug-In . SVG Version: 6.00 Build 0)  -->
<svg version="1.1" id="Layer_1" xmlns="http://www.w3.org/2000/svg" xmlns:xlink="http://www.w3.org/1999/xlink" x="0px" y="0px"
	 viewBox="0 0 12 22.3" style="enable-background:new 0 0 12 22.3;" xml:space="preserve">
<style type="text/css">
	.st0{fill:#FFFFFF;}
</style>
<desc>Created with Sketch.</desc>
<g>
	<path class="st0" d="M6,0C2.7,0,0,2.7,0,6v6c0,3.3,2.7,6,6,6s6-2.7,6-6V6C12,2.7,9.3,0,6,0z M10.5,12c0,2.5-2,4.5-4.5,4.5
		s-4.5-2-4.5-4.5V6c0-2.5,2-4.5,4.5-4.5s4.5,2,4.5,4.5V12z"/>
	<path class="st0" d="M6,3.8c-0.4,0-0.8,0.3-0.8,0.8v4c0,0.4,0.3,0.8,0.8,0.8s0.8-0.3,0.8-0.8v-4C6.8,4.1,6.4,3.8,6,3.8z"/>
	<path class="st0" d="M9.1,18.8L6,20.6l-3.1-1.8c-0.4-0.2-0.8-0.1-1,0.3c-0.2,0.4-0.1,0.8,0.3,1l3.5,2c0,0,0.1,0,0.1,0
		c0,0,0.1,0,0.1,0c0,0,0.1,0,0.1,0c0,0,0.1,0,0.1,0c0.1,0,0.1,0,0.1,0c0,0,0.1,0,0.1,0l3.5-2c0.4-0.2,0.5-0.7,0.3-1
		C9.9,18.8,9.5,18.6,9.1,18.8z"/>
</g>
</svg>
