<?xml version="1.0" encoding="utf-8"?>
<!-- Generator: Adobe Illustrator 24.2.3, SVG Export Plug-In . SVG Version: 6.00 Build 0)  -->
<svg version="1.1" id="Layer_1" xmlns="http://www.w3.org/2000/svg" xmlns:xlink="http://www.w3.org/1999/xlink" x="0px" y="0px"
	 viewBox="0 0 848.6 112.7" style="enable-background:new 0 0 848.6 112.7;" xml:space="preserve">
<style type="text/css">
	.st0{fill:#FFFFFF;}
</style>
<polygon class="st0" points="28.7,85.6 28.7,32.3 13.1,32.3 13.1,23.6 55.4,23.6 55.4,32.3 39.5,32.3 39.5,85.6 "/>
<path class="st0" d="M64.8,85.6v-62h19.5c4.2,0,7.6,0.7,10.5,2.1c2.9,1.4,5,3.4,6.5,6.1c1.5,2.8,2.3,6.1,2.3,10.1
	c0,3.3-0.4,6.1-1.3,8.6c-0.8,2.2-2.1,4.2-3.7,5.7c-1,0.9-2.2,1.8-3.6,2.6l-0.8,0.4l11.4,26.4H93.6l-9.6-23.5h-8.1v23.5H64.8z
	 M75.8,53.4H84c2,0,3.6-0.4,5-1.4c1.3-0.9,2.2-2.1,3-3.7c0.7-1.5,1-3.3,1-5.4c0-2.1-0.3-4-0.9-5.5c-0.6-1.7-1.5-3-2.8-3.8
	c-1.2-0.8-2.7-1.3-4.8-1.3h-8.6V53.4z"/>
<rect x="115.2" y="23.6" class="st0" width="10.8" height="62"/>
<path class="st0" d="M157.7,86.5c-3,0-5.7-0.4-8.1-1.2c-2.5-0.8-4.8-2-6.7-3.6c-1.9-1.6-3.4-3.7-4.4-6.1c-1-2.4-1.5-5.1-1.6-8h10.9
	c0.1,1.6,0.3,3.1,0.6,4.2c0.4,1.4,1,2.6,2,3.7c0.9,0.9,2,1.6,3.3,2.1c1.3,0.4,2.8,0.7,4.3,0.7c1.9,0,3.5-0.4,4.6-1
	c1.1-0.7,2-1.7,2.6-3l0-0.1l0-0.1c0.3-1.3,0.6-2.6,0.6-4c0-1.2-0.1-2.4-0.3-3.3c-0.3-1.2-0.8-2.2-1.5-3c-0.9-1-1.9-1.8-3.1-2.6
	c-1.3-0.9-3.2-1.7-5-2.6c-2.1-0.9-4.2-1.9-6.9-3.2c-2.1-1.1-4.1-2.3-5.8-3.8c-1.7-1.4-3-3.1-3.9-5c-1-2-1.5-4.3-1.5-6.8
	c0-2.5,0.5-4.8,1.4-6.9c1-2.1,2.3-3.9,3.9-5.2c1.8-1.6,3.7-2.7,6.1-3.4c2.6-0.8,5.2-1.3,7.9-1.3c3.8,0,7.3,0.8,10.2,2.4
	c2.8,1.6,5,3.8,6.6,6.6c1.4,2.6,2.2,5.4,2.4,8.7h-10.8c-0.1-1.4-0.4-2.8-0.8-4.1c-0.6-1.6-1.5-2.9-2.8-3.8c-1.3-0.9-2.9-1.4-4.9-1.4
	c-1.9,0-3.4,0.4-4.6,1.2c-1.4,0.9-2.2,1.9-2.8,3.2c-0.6,1.3-0.9,2.7-0.9,4.2c0,1.2,0.3,2.3,1,3.3c0.6,1,1.5,1.9,2.4,2.5
	c1,0.7,2.2,1.4,3.3,2c1.1,0.6,2.5,1.2,4.2,1.8c2.8,1.1,5.3,2.3,7.5,3.7c2.3,1.5,4,2.9,5.4,4.4c1.4,1.6,2.4,3.3,3.2,5.4
	c0.7,1.8,1,4.1,1,6.8c0,2.5-0.4,4.7-1.3,6.9c-0.8,2-2.1,3.8-3.7,5.2c-1.7,1.5-3.7,2.7-6,3.4C163.1,86.1,160.4,86.5,157.7,86.5z"/>
<polygon class="st0" points="200.1,85.6 200.1,32.3 184.5,32.3 184.5,23.6 226.8,23.6 226.8,32.3 210.9,32.3 210.9,85.6 "/>
<path class="st0" d="M232.5,85.7l19.4-62h3.5l0-0.1h6.7l19.6,62h-11.6l-3.4-13.1h-19.2l-3.5,13.2H232.5z M249.7,63.8h14.7l-7.3-28
	L249.7,63.8z"/>
<polygon class="st0" points="322,85.6 300.3,42.4 300.3,85.6 290,85.6 290,23.6 300.7,23.6 322.6,67.3 322.6,23.6 332.8,23.6 
	332.8,85.6 "/>
<polygon class="st0" points="379.9,85.6 362,23.6 373.6,23.6 385.6,73.6 397.7,23.6 409.5,23.6 391.5,85.6 "/>
<path class="st0" d="M414.1,85.7l19.4-62h10.1l19.6,62l-11.5-0.1l-3.5-13.1H429l-3.5,13.2H414.1z M431.3,63.8h14.6l-7.3-27.7
	L431.3,63.8z"/>
<polygon class="st0" points="503.5,85.6 481.8,42.4 481.8,85.6 471.6,85.6 471.6,23.6 482.3,23.6 504.2,67.3 504.2,23.6 514.3,23.6 
	514.3,85.6 "/>
<path class="st0" d="M568.9,86.5c-3.3,0-6.5-0.6-9.2-1.6c-2.8-1.1-5.1-2.7-7-4.8c-2-2.1-3.4-4.8-4.5-8.2c-1-3.2-1.6-7.2-1.6-11.9
	V49.2c0-4.7,0.5-8.6,1.6-11.9c0.9-3.1,2.4-5.9,4.3-8.3c1.7-2,4-3.7,6.7-4.8c2.8-1.1,5.7-1.6,9-1.6c4.7,0,8.5,0.8,11.3,2.3
	c2.9,1.5,5,3.7,6.6,6.8c1.4,2.9,2.4,6.3,2.7,10.3h-10.4c-0.2-2.3-0.7-4.2-1.4-5.7c-0.8-1.8-1.9-3-3.3-3.8c-1.4-0.8-3.1-1.1-5.3-1.1
	c-1.9,0-3.5,0.3-4.8,1c-1.3,0.7-2.6,1.8-3.6,3.2c-0.9,1.5-1.7,3.5-2.1,5.6c-0.4,2.2-0.6,4.8-0.6,8V60c0,3.3,0.2,5.9,0.7,7.9
	c0.4,1.9,1.1,4,2.3,5.6c1,1.4,2.3,2.5,3.9,3.2c1.5,0.7,3.3,1,5.4,1c1.6,0,2.9-0.2,4-0.6c1-0.3,1.9-0.7,2.5-1.1l0.5-0.3
	c0.3-0.2,0.6-0.4,0.8-0.5l0.6-0.3V61.7h-9.2V54h20.1v25c-0.8,0.9-2,1.8-3.6,3c-1.6,1.2-3.8,2.3-6.5,3.2
	C576.2,86.1,573,86.5,568.9,86.5z"/>
<path class="st0" d="M596.4,85.7l19.4-62h3.4l0-0.1h6.7l19.6,62H634l-3.4-13.1h-19.3l-3.5,13.2H596.4z M613.5,63.8h14.8l-7.4-28.2
	L613.5,63.8z"/>
<path class="st0" d="M653.9,85.6v-62h19.5c4.2,0,7.6,0.7,10.5,2.1c2.9,1.4,5,3.4,6.5,6.1c1.5,2.8,2.3,6.1,2.3,10.1
	c0,3.3-0.4,6.1-1.3,8.6c-0.8,2.2-2.1,4.2-3.7,5.7c-1,0.9-2.2,1.8-3.6,2.6l-0.8,0.4l11.4,26.4h-11.9L673,62.1h-8.2v23.5H653.9z
	 M664.8,53.4h8.2c2,0,3.6-0.4,5-1.4c1.3-0.9,2.2-2.1,3-3.7c0.7-1.5,1-3.3,1-5.4c0-2-0.3-4-0.9-5.5c-0.6-1.7-1.6-3-2.8-3.8
	c-1.2-0.8-2.7-1.3-4.8-1.3h-8.6V53.4z"/>
<path class="st0" d="M722.4,86.5c-3,0-5.7-0.4-8.1-1.2c-2.5-0.8-4.8-2-6.7-3.6c-1.9-1.6-3.4-3.7-4.4-6.1c-1-2.4-1.5-5.1-1.6-8h10.9
	c0.1,1.6,0.3,3.1,0.6,4.2c0.4,1.4,1,2.6,2,3.7c0.9,0.9,2,1.6,3.3,2.1c1.2,0.4,2.7,0.7,4.3,0.7c1.9,0,3.5-0.4,4.6-1
	c1.1-0.7,2-1.7,2.6-3l0-0.1c0.4-1.3,0.7-2.7,0.7-4.1c0-1.2-0.1-2.4-0.3-3.3c-0.3-1.2-0.8-2.2-1.5-3c-0.8-1-1.9-1.8-3.1-2.6
	c-1.3-0.8-2.8-1.6-5-2.6c-2.1-0.9-4.2-1.9-6.9-3.2c-2.1-1.1-4.1-2.3-5.8-3.8c-1.7-1.4-3-3.1-3.9-5c-1-2-1.5-4.3-1.5-6.8
	c0-2.5,0.5-4.8,1.4-6.9c1-2.1,2.3-3.9,3.9-5.2c1.8-1.6,3.7-2.7,6.1-3.4c2.6-0.8,5.2-1.3,7.9-1.3c3.8,0,7.3,0.8,10.2,2.4
	c2.8,1.6,5,3.8,6.6,6.6c1.5,2.6,2.2,5.4,2.4,8.7h-10.8c-0.1-1.5-0.4-2.8-0.8-4.1c-0.6-1.6-1.5-2.9-2.8-3.8c-1.3-0.9-2.9-1.4-4.9-1.4
	c-1.9,0-3.4,0.4-4.6,1.2c-1.4,0.9-2.2,1.9-2.8,3.2c-0.6,1.3-0.9,2.7-0.9,4.2c0,1.2,0.3,2.3,1,3.3c0.6,1,1.5,1.9,2.4,2.5
	c1,0.7,2.2,1.4,3.3,2c1.1,0.6,2.5,1.2,4.2,1.8c2.8,1.1,5.3,2.3,7.5,3.7c2.3,1.5,4,2.9,5.4,4.4c1.4,1.6,2.4,3.3,3.2,5.4
	c0.7,1.8,1,4.1,1,6.8c0,2.5-0.4,4.7-1.3,6.9c-0.8,2-2.1,3.8-3.7,5.2c-1.7,1.5-3.7,2.7-6,3.4C727.8,86.1,725.1,86.5,722.4,86.5z"/>
<path class="st0" d="M771,86.5c-3,0-5.7-0.4-8.1-1.2c-2.5-0.8-4.8-2-6.7-3.6c-1.9-1.6-3.4-3.7-4.4-6.1c-1-2.4-1.5-5.1-1.6-8h10.9
	c0.1,1.6,0.3,3.1,0.6,4.2c0.4,1.4,1,2.6,2,3.7c0.9,0.9,2,1.6,3.3,2.1c1.2,0.4,2.7,0.7,4.3,0.7c1.9,0,3.5-0.4,4.6-1
	c1.1-0.7,2-1.7,2.6-3l0,0l0-0.1c0.4-1.3,0.7-2.7,0.7-4.1c0-1.2-0.1-2.4-0.3-3.3c-0.3-1.2-0.8-2.2-1.5-3c-0.9-1-1.9-1.8-3.1-2.6
	s-2.8-1.6-5-2.6c-2.7-1.1-5.2-2.4-6.9-3.2c-2.1-1.1-4.1-2.3-5.8-3.8c-1.7-1.4-3-3.1-3.9-5c-1-2-1.5-4.3-1.5-6.8
	c0-2.5,0.5-4.8,1.4-6.9c1-2.1,2.3-3.9,3.9-5.2c1.8-1.6,3.7-2.7,6.1-3.4c2.6-0.8,5.2-1.3,7.9-1.3c3.8,0,7.3,0.8,10.2,2.4
	c2.8,1.6,5,3.8,6.6,6.6c1.5,2.6,2.2,5.4,2.4,8.7h-10.8c-0.1-1.4-0.4-2.8-0.8-4.1c-0.6-1.6-1.5-2.9-2.8-3.8c-1.3-0.9-2.9-1.4-4.9-1.4
	c-1.9,0-3.4,0.4-4.6,1.2c-1.4,0.9-2.2,1.9-2.8,3.2c-0.6,1.3-0.9,2.7-0.9,4.2c0,1.2,0.3,2.3,1,3.3c0.6,1,1.5,1.9,2.4,2.5
	c1,0.7,2.2,1.4,3.3,2c1.1,0.6,2.5,1.2,4.2,1.8c2.8,1.1,5.3,2.3,7.5,3.7c2.3,1.5,4,2.9,5.4,4.4c1.4,1.6,2.4,3.3,3.2,5.4
	c0.7,1.8,1,4.1,1,6.8c0,2.5-0.4,4.7-1.3,6.9c-0.8,2-2.1,3.8-3.7,5.2c-1.7,1.5-3.7,2.7-6,3.4C776.4,86.1,773.7,86.5,771,86.5z"/>
<polygon class="st0" points="800.8,85.6 800.8,23.6 835.4,23.6 835.4,32.3 811.7,32.3 811.7,49.5 831.8,49.5 831.8,57.9 811.7,57.9 
	811.7,76.9 835.5,76.9 835.5,85.6 "/>
</svg>
